# xmcd
#
# Track frame offsets:
#	150
#	16944
#	34587
#	46097
#	60273
#	79789
#	94222
#	109741
#	122759
#	137602
#
# Disc length: 2081 seconds
#
# Revision: 1
# Processed by: cddbd v1.5.2PL0 Copyright (c) Steve Scherf et al.
# Submitted via: EZCDAudioConverter 8.0.5.1
#
DISCID=72081f0a
DTITLE=Garth Brooks - No Fences
DYEAR=1990
DGENRE=Country
TTITLE0=The Thunder Rolls
TTITLE1=New Way To Fly
TTITLE2=Two Of A Kind, Workin' On A Full House
TTITLE3=Victim Of The Game
TTITLE4=Friends In Low Places
TTITLE5=Wild Horses
TTITLE6=Unanswered Prayers
TTITLE7=Same Old Story
TTITLE8=Mr. Blue
TTITLE9=Wolves
EXTD=
EXTT0=
EXTT1=
EXTT2=
EXTT3=
EXTT4=
EXTT5=
EXTT6=
EXTT7=
EXTT8=
EXTT9=
PLAYORDER=
